Coordinates
version=1
nRows=21
nColumns=12
inDegrees=yes

Units are S.I. units (second, meters, Newtons, ...)
Angles are in degrees

endheader
time	SC_y	SC_z	SC_x	AC_y	AC_z	AC_x	GH_y	GH_z	GH_yy	EL_x	PS_y
       0.0              -22.71          8.364          71.15          53.63          5.742           9.92          69.82          78.14          143.1          70.79          31.27
  0.007465              -22.71          8.363          71.15          53.63          5.742          9.916          69.81          78.13          143.1          70.78          31.27
   0.01493              -22.71          8.362          71.15          53.63          5.742          9.912          69.78          78.11          143.1          70.77          31.27
   0.02239              -22.71          8.361          71.15          53.63          5.743          9.907          69.76           78.1          143.1          70.76          31.27
   0.02986              -22.71           8.36          71.15          53.64          5.743          9.902          69.74          78.08          143.1          70.75          31.27
   0.03732              -22.71          8.359          71.15          53.64          5.743          9.897          69.72          78.06          143.1          70.74          31.27
   0.04479              -22.71          8.358          71.15          53.64          5.743          9.891          69.69          78.04          143.1          70.73          31.28
   0.05225               -22.7          8.357          71.15          53.65          5.744          9.885          69.66          78.02          143.1          70.72          31.28
   0.05972               -22.7          8.355          71.15          53.65          5.744          9.878          69.63           78.0          143.1          70.71          31.28
   0.06718               -22.7          8.354          71.14          53.65          5.744          9.871           69.6          77.97          143.1          70.69          31.28
   0.07465               -22.7          8.352          71.14          53.66          5.745          9.863          69.56          77.95          143.1          70.68          31.28
   0.08211               -22.7          8.351          71.14          53.66          5.745          9.855          69.53          77.92          143.1          70.67          31.28
   0.08957               -22.7          8.349          71.14          53.66          5.745          9.846          69.49          77.89          143.1          70.65          31.29
   0.09704              -22.69          8.347          71.14          53.67          5.746          9.837          69.44          77.86          143.0          70.63          31.29
    0.1045              -22.69          8.345          71.14          53.67          5.746          9.826           69.4          77.82          143.0          70.61          31.29
     0.112              -22.69          8.342          71.14          53.68          5.747          9.815          69.35          77.79          143.0          70.59          31.29
    0.1194              -22.69           8.34          71.13          53.69          5.747          9.803          69.29          77.74          143.0          70.57           31.3
    0.1269              -22.68          8.337          71.13          53.69          5.748           9.79          69.23           77.7          143.0          70.54           31.3
    0.1344              -22.68          8.334          71.13           53.7          5.748          9.775          69.17          77.65          143.0          70.52           31.3
    0.1418              -22.68          8.331          71.13          53.71          5.749           9.76          69.09           77.6          143.0          70.49          31.31
    0.1493              -22.68          8.327          71.12          53.72           5.75          9.742          69.01          77.54          143.0          70.46          31.31
